<?xml version="1.0" encoding="UTF-8" standalone="no"?>
<!DOCTYPE svg PUBLIC "-//W3C//DTD SVG 1.1//EN"
 "http://www.w3.org/Graphics/SVG/1.1/DTD/svg11.dtd">
<!-- Generated by graphviz version 2.40.1 (20161225.0304)
 -->
<!-- Title: send Pages: 1 -->
<svg width="159pt" height="64pt"
 viewBox="0.00 0.00 159.38 64.00" xmlns="http://www.w3.org/2000/svg" xmlns:xlink="http://www.w3.org/1999/xlink">
<g id="graph0" class="graph" transform="scale(1 1) rotate(0) translate(4 60)">
<title>send</title>
<polygon fill="#ffffff" stroke="transparent" points="-4,4 -4,-60 155.3838,-60 155.3838,4 -4,4"/>
<!-- Node6 -->
<g id="node1" class="node">
<title>Node6</title>
<polygon fill="#bfbfbf" stroke="#000000" points="0,-18.5 0,-36.5 37.6846,-36.5 37.6846,-18.5 0,-18.5"/>
<text text-anchor="middle" x="18.8423" y="-24.5" font-family="Helvetica,sans-Serif" font-size="10.00" fill="#000000">send</text>
</g>
<!-- Node7 -->
<g id="node2" class="node">
<title>Node7</title>
<g id="a_node2"><a xlink:href="enviar__alertas_8php.html#a508906286211b4a6c5c393195505b870" target="_top" xlink:title="runSQL">
<polygon fill="#ffffff" stroke="#000000" points="87.3027,-37.5 87.3027,-55.5 137.7656,-55.5 137.7656,-37.5 87.3027,-37.5"/>
<text text-anchor="middle" x="112.5342" y="-43.5" font-family="Helvetica,sans-Serif" font-size="10.00" fill="#000000">runSQL</text>
</a>
</g>
</g>
<!-- Node6&#45;&gt;Node7 -->
<g id="edge1" class="edge">
<title>Node6&#45;&gt;Node7</title>
<path fill="none" stroke="#191970" d="M37.8022,-31.3449C49.1364,-33.6434 63.8947,-36.6363 77.2992,-39.3546"/>
<polygon fill="#191970" stroke="#191970" points="76.7107,-42.8064 87.2068,-41.3638 78.1019,-35.9461 76.7107,-42.8064"/>
</g>
<!-- Node8 -->
<g id="node3" class="node">
<title>Node8</title>
<g id="a_node3"><a xlink:href="enviar__alertas_8php.html#afea96bc9f172c253a8d9e258c7298c33" target="_top" xlink:title="mail_contents">
<polygon fill="#ffffff" stroke="#000000" points="73.6846,-.5 73.6846,-18.5 151.3838,-18.5 151.3838,-.5 73.6846,-.5"/>
<text text-anchor="middle" x="112.5342" y="-6.5" font-family="Helvetica,sans-Serif" font-size="10.00" fill="#000000">mail_contents</text>
</a>
</g>
</g>
<!-- Node6&#45;&gt;Node8 -->
<g id="edge2" class="edge">
<title>Node6&#45;&gt;Node8</title>
<path fill="none" stroke="#191970" d="M37.8022,-23.8574C45.3416,-22.409 54.3961,-20.6694 63.5595,-18.909"/>
<polygon fill="#191970" stroke="#191970" points="64.3188,-22.3272 73.4788,-17.0033 62.998,-15.4529 64.3188,-22.3272"/>
</g>
</g>
</svg>
